<?xml version="1.0" encoding="UTF-8"?>
<svg version="1.1" xmlns="http://www.w3.org/2000/svg" width="537" height="465">
<path d="M0 0 C5.83564873 4.37673655 9.32949869 10.89241925 13.05566406 17.02832031 C14.15782076 18.84179126 15.27525079 20.64480713 16.3984375 22.4453125 C19.32935652 27.16311151 22.20033964 31.89854077 24.9440918 36.7277832 C27.54801976 41.25717605 30.22222752 45.74570824 32.88574219 50.24023438 C33.9224249 51.9901779 34.95735029 53.74115218 35.9921875 55.4921875 C39.43398222 61.30831273 42.90266996 67.10771794 46.42578125 72.875 C47.35064331 74.3904541 47.35064331 74.3904541 48.29418945 75.93652344 C50.88857064 79.98449408 53.71605104 83.81673733 56.62109375 87.6484375 C58.1875 89.890625 58.1875 89.890625 59.1875 92.890625 C61.06262614 93.97403907 61.06262614 93.97403907 63.1875 94.890625 C64.30596882 95.66071829 65.40374725 96.46160435 66.48046875 97.2890625 C67.10203857 97.7624707 67.7236084 98.23587891 68.36401367 98.72363281 C69.02763916 99.23249023 69.69126465 99.74134766 70.375 100.265625 C96.70870669 121.58343651 96.70870669 121.58343651 128.48730469 129.10180664 C130.32572937 129.09983528 130.32572937 129.09983528 132.20129395 129.0978241 C134.86025973 129.09356673 137.51891579 129.08568318 140.1778183 129.07151985 C144.41161405 129.04906268 148.64536503 129.04112898 152.87921143 129.03501892 C159.60775588 129.02364463 166.33623332 129.00294865 173.06474042 128.97812122 C185.02897378 128.93399564 196.99322488 128.90023128 208.95751882 128.87787718 C213.13499018 128.86964236 217.31238809 128.85562275 221.48982549 128.83705205 C234.69070942 128.78138811 247.87666444 128.84651086 261.07128906 129.28686523 C262.16773113 129.32022759 263.2641732 129.35358995 264.39384079 129.38796329 C273.0985568 129.7226752 280.90195646 131.08408706 289.1875 133.890625 C289.84218262 134.10879883 290.49686523 134.32697266 291.17138672 134.55175781 C319.50755818 144.1257952 319.50755818 144.1257952 328.1875 154.890625 C329.5 158.515625 329.5 158.515625 329.1875 161.890625 C327.27847729 165.52006817 326.08420157 167.49303091 322.2890625 169.17578125 C320.56816406 169.56056641 320.56816406 169.56056641 318.8125 169.953125 C317.8536792 170.17609253 317.8536792 170.17609253 316.87548828 170.40356445 C315.44595701 170.73315922 314.01395445 171.05215787 312.58007812 171.36230469 C309.96489948 171.93977883 307.36648349 172.57214618 304.765625 173.2109375 C302.86490652 173.66801272 300.96386545 174.12374858 299.0625 174.578125 C298.18158691 174.79283447 297.30067383 175.00754395 296.39306641 175.22875977 C284.32078542 178.01167737 272.08874805 178.04410238 259.75390625 178.0234375 C258.30386845 178.02411387 256.85383076 178.02508664 255.40379333 178.02633667 C252.38596502 178.02779849 249.3681666 178.02570877 246.3503418 178.02099609 C242.52384587 178.01530493 238.69742021 178.01858371 234.87092686 178.02456856 C231.88253776 178.0282199 228.89416471 178.02701475 225.90577507 178.02444077 C224.49668303 178.0237838 223.08758943 178.02455567 221.67849922 178.02692032 C208.34162985 178.044398 195.55679996 177.62264862 182.625 174.203125 C171.89956492 171.49344566 161.13116184 169.15731806 150.28491211 166.98364258 C143.8118371 165.67715456 137.40970409 164.22411902 131.01196289 162.58911133 C126.72218978 161.52825552 122.39994945 160.66863554 118.0625 159.828125 C115.58984375 159.34179688 115.58984375 159.34179688 113.1171875 158.85546875 C112.3118457 158.69965332 111.50650391 158.54383789 110.67675781 158.38330078 C108.94933868 158.04140869 107.22484253 157.68454136 105.50292969 157.31591797 C104.62797852 157.1304541 103.75302734 156.94499023 102.8515625 156.75390625 C102.06475098 156.58286377 101.27793945 156.41182129 100.46728516 156.2355957 C96.79884784 155.68049804 93.8109171 156.11417848 90.1875 156.890625 C87.23325563 159.84486937 86.56004499 163.43664042 85.28515625 167.359375 C84.1875 169.890625 84.1875 169.890625 81.1875 171.890625 C75.3256823 172.59109378 72.34569462 171.94054042 67.71044922 168.33569336 C66.77096436 167.55850952 66.77096436 167.55850952 65.8125 166.765625 C65.1333252 166.2301001 64.45415039 165.6945752 63.75439453 165.14282227 C62.30348228 163.99725223 60.85879229 162.84376432 59.41992188 161.68310547 C56.42766291 159.28052834 53.38891297 156.94053197 50.35058594 154.59667969 C48.07081061 152.83454861 45.79984633 151.06164925 43.53125 149.28515625 C40.77034893 147.12346844 38.00059429 144.97450344 35.21875 142.83984375 C24.17706559 134.34345922 16.32794743 126.27835524 9.453125 114.12744141 C8.11597838 111.76422047 6.76242488 109.41094243 5.40625 107.05859375 C1.16872979 99.69159997 -3.02361502 92.29946863 -7.1875 84.890625 C-12.35167155 75.70689869 -17.53959678 66.58191783 -23.12109375 57.64453125 C-25.87704134 53.15736485 -28.37154034 48.55503306 -30.8125 43.890625 C-31.14314453 43.27251953 -31.47378906 42.65441406 -31.81445312 42.01757812 C-42.37974907 22.21004507 -42.37974907 22.21004507 -39.6875 13.140625 C-36.47833647 5.26987479 -32.21464967 0.93730105 -24.8125 -3.109375 C-15.31415722 -6.71219468 -8.38148611 -5.13004753 0 0 Z " fill="#101C2B" transform="translate(63.8125,86.109375)"/>
<path d="M0 0 C1.35624229 -0.00262848 1.35624229 -0.00262848 2.73988342 -0.00531006 C5.73871765 -0.00972349 8.73749326 -0.00679235 11.73632812 -0.00341797 C13.81376151 -0.00409115 15.89119482 -0.0050613 17.96862793 -0.00631714 C22.32658639 -0.00779342 26.68452438 -0.00564177 31.04248047 -0.00097656 C36.63828918 0.00472068 42.23404993 0.0014413 47.82985687 -0.00454903 C52.12083296 -0.0081565 56.41179762 -0.00701519 60.70277405 -0.00442123 C62.76652533 -0.00375248 64.83027763 -0.00457859 66.89402771 -0.00690079 C69.77443201 -0.00943034 72.65475782 -0.00558239 75.53515625 0 C76.39444229 -0.00202423 77.25372833 -0.00404846 78.13905334 -0.00613403 C84.03905034 0.01513064 84.03905034 0.01513064 86.26757812 1.12939453 C86.29090561 20.93046014 86.30855656 40.73152297 86.3193903 60.53259945 C86.32455358 69.72592057 86.33159688 78.91923317 86.34301758 88.11254883 C86.35296345 96.12246489 86.35943132 104.13237478 86.36166662 112.14229685 C86.36297389 116.38616707 86.36606079 120.63001963 86.37330818 124.8738842 C86.38006687 128.86368523 86.3821954 132.85346123 86.38068581 136.84326744 C86.3809622 138.31188849 86.38296823 139.78051032 86.3867836 141.24912643 C86.39171841 143.24562229 86.38997625 145.2421314 86.38783264 147.2386322 C86.38875443 148.35861068 86.38967623 149.47858915 86.39062595 150.63250637 C86.26757812 153.12939453 86.26757812 153.12939453 85.26757812 154.12939453 C82.2845623 154.22467781 79.32484626 154.25490322 76.34155273 154.24291992 C75.38986238 154.24304046 74.43817202 154.24316099 73.45764256 154.24328518 C70.36171229 154.24253581 67.26584144 154.23490649 64.16992188 154.22705078 C62.26468942 154.22558144 60.35945657 154.22456068 58.45422363 154.22399902 C51.37116899 154.21874527 44.28812298 154.2047842 37.20507812 154.19189453 C21.38570313 154.17126953 5.56632812 154.15064453 -10.73242188 154.12939453 C-10.73242188 103.63939453 -10.73242188 53.14939453 -10.73242188 1.12939453 C-7.40081156 -0.53641063 -3.66282219 -0.00862856 0 0 Z " fill="#0F1C2B" transform="translate(263.732421875,281.87060546875)"/>
<path d="M0 0 C3.59252975 0.78591334 7.17035236 1.63052913 10.74575806 2.49066162 C14.60504966 3.41871763 18.47060262 4.31981698 22.33642578 5.22021484 C23.09339249 5.3969574 23.85035919 5.57369995 24.63026428 5.75579834 C31.66994998 7.38683442 38.74383042 8.7848477 45.86157227 10.03198242 C46.98414429 10.23150513 46.98414429 10.23150513 48.12939453 10.43505859 C48.75499268 10.54124512 49.38059082 10.64743164 50.02514648 10.75683594 C52.77820301 11.38331914 55.40545353 12.32043097 58.07861328 13.22412109 C57.93501188 26.16164651 57.78902929 39.09914428 57.64111328 52.03662109 C57.63009205 53.00071144 57.61907082 53.96480179 57.60771561 54.95810699 C57.29025187 82.6725135 56.93905589 110.3861149 56.51611328 138.09912109 C56.50501148 138.82667728 56.49390968 139.55423347 56.48247147 140.30383682 C56.35040645 148.94397179 56.2159604 157.58406835 56.07861328 166.22412109 C51.2735405 167.38300279 47.83298438 166.60848152 43.18408203 165.19677734 C42.4114653 164.97276245 41.63884857 164.74874756 40.84281921 164.51794434 C38.31436653 163.78368391 35.79040756 163.03503906 33.26611328 162.28662109 C29.74355755 161.25816864 26.21832613 160.23919799 22.69189453 159.22412109 C21.80356934 158.96788467 20.91524414 158.71164825 20 158.44764709 C14.21352836 156.79309433 8.40866911 155.26378934 2.55908203 153.84912109 C1.8218541 153.67037949 1.08462616 153.49163788 0.32505798 153.30747986 C-3.13922438 152.47272442 -6.60716613 151.65787077 -10.08081055 150.86303711 C-11.30952881 150.57098389 -12.53824707 150.27893066 -13.80419922 149.97802734 C-14.87041504 149.73383057 -15.93663086 149.48963379 -17.03515625 149.23803711 C-20.71134692 147.94661266 -22.46399524 147.32910086 -24.92138672 144.22412109 C-25.53227357 139.97036455 -25.26195879 135.78602892 -25.04248047 131.50537109 C-24.99648209 130.20796997 -24.9504837 128.91056885 -24.90309143 127.57385254 C-24.77714296 124.02774036 -24.62007551 120.48361731 -24.45739746 116.93902588 C-24.29249453 113.23136633 -24.15578951 109.52268129 -24.01708984 105.81396484 C-23.81425131 100.45012197 -23.60254742 95.0867645 -23.38022804 89.72369385 C-23.01485887 80.88396117 -22.7113594 72.04387852 -22.4542408 63.20036316 C-22.39445836 61.14465492 -22.33347016 59.08898599 -22.27207947 57.0333252 C-22.03961655 49.24760397 -22.03961655 49.24760397 -21.81442261 41.46166992 C-21.16010922 18.87309432 -21.16010922 18.87309432 -20.04638672 7.66162109 C-19.98008057 6.92306885 -19.91377441 6.1845166 -19.84545898 5.42358398 C-19.61669922 3.40771484 -19.61669922 3.40771484 -18.92138672 0.22412109 C-13.33694557 -3.49883967 -6.30681138 -1.24785497 0 0 Z " fill="#0F1C2B" transform="translate(187.92138671875,265.77587890625)"/>
<path d="M0 0 C0.0578304 4.45827926 0.09353855 8.9164628 0.125 13.375 C0.14175781 14.64601563 0.15851563 15.91703125 0.17578125 17.2265625 C0.18222656 18.43828125 0.18867188 19.65 0.1953125 20.8984375 C0.20578613 22.01911621 0.21625977 23.13979492 0.22705078 24.29443359 C0 27 0 27 -2 29 C-3.48260252 29.49325045 -4.98701064 29.92228281 -6.5 30.3125 C-18.67680801 33.85165859 -28.12572969 39.88915267 -34.875 50.8125 C-40.79786986 61.79248379 -43.52331344 73.92540168 -39.86328125 86.16796875 C-35.55674879 98.96177394 -28.29464324 109.7538603 -16.125 116.3125 C-11.98461271 118.20285864 -7.63167845 119.30114107 -3.22265625 120.38671875 C-1 121 -1 121 0 122 C0.12584451 124.78821858 0.18866347 127.55032711 0.203125 130.33984375 C0.20882507 131.17713516 0.21452515 132.01442657 0.22039795 132.87709045 C0.22986154 134.65168997 0.23638731 136.42630716 0.24023438 138.20092773 C0.24994709 140.92267323 0.28095987 143.6436661 0.3125 146.36523438 C0.31902899 148.085933 0.32427987 149.80663704 0.328125 151.52734375 C0.3404718 152.34508774 0.3528186 153.16283173 0.36553955 154.00535583 C0.35644531 156.30053711 0.35644531 156.30053711 0 160 C-3.01484091 162.00989394 -4.15162622 162.33783219 -7.61303711 162.73022461 C-8.54929428 162.84051498 -9.48555145 162.95080536 -10.45018005 163.06443787 C-11.97337608 163.23170128 -11.97337608 163.23170128 -13.52734375 163.40234375 C-15.11452965 163.58719078 -15.11452965 163.58719078 -16.73377991 163.77577209 C-20.13418977 164.17066152 -23.53570915 164.55470518 -26.9375 164.9375 C-31.36381528 165.44204907 -35.78951899 165.95168229 -40.21484375 166.46484375 C-41.295914 166.58951019 -42.37698425 166.71417664 -43.49081421 166.84262085 C-51.30907294 167.75982613 -59.09063028 168.84495603 -66.86351013 170.08909607 C-70.30665168 170.63454901 -73.50294479 171 -77 171 C-78.37121134 168.25757733 -78.12910326 166.0733248 -78.13371277 163.00244141 C-78.13797775 161.72363098 -78.14224274 160.44482056 -78.14663696 159.1272583 C-78.14628742 157.70202634 -78.14582587 156.2767944 -78.14526367 154.8515625 C-78.1482544 153.35699377 -78.15165672 151.86242582 -78.15544128 150.36785889 C-78.16429331 146.30185289 -78.16661987 142.23586791 -78.16725707 138.16985321 C-78.16820507 134.77995136 -78.17188202 131.39005445 -78.17542917 128.0001545 C-78.18357793 120.00595984 -78.18601298 112.01177645 -78.18530273 104.01757812 C-78.1847015 95.75942366 -78.19526151 87.50133443 -78.2110464 79.24319649 C-78.22410128 72.16207635 -78.22948751 65.08097759 -78.22884732 57.9998455 C-78.22859177 53.76657699 -78.23147429 49.53336644 -78.24202538 45.30010986 C-78.2516722 41.32091928 -78.2518092 37.34184249 -78.24450874 33.36264801 C-78.2434587 31.89928268 -78.24585051 30.43591039 -78.2518692 28.97255707 C-78.25953255 26.98090505 -78.25377078 24.98921464 -78.24723816 22.99755859 C-78.24778293 21.88109955 -78.24832769 20.7646405 -78.24888897 19.61434937 C-78 17 -78 17 -76 15 C-74.04785156 14.46166992 -74.04785156 14.46166992 -71.640625 14.04296875 C-65.6435024 12.93863103 -59.70171776 11.6384892 -53.75 10.3125 C-52.60281494 10.05702393 -51.45562988 9.80154785 -50.27368164 9.53833008 C-41.65889086 7.61137553 -33.05231333 5.6496829 -24.45300293 3.65487671 C-23.11260898 3.3440516 -21.77203323 3.03400939 -20.43127441 2.72476196 C-18.55643116 2.2918248 -16.68249003 1.85498653 -14.80859375 1.41796875 C-13.73407959 1.16813232 -12.65956543 0.9182959 -11.55249023 0.66088867 C-7.04531116 -0.50610643 -4.82269258 -0.8037821 0 0 Z " fill="#0F1B2B" transform="translate(435,264)"/>
<path d="M0 0 C11.53141301 9.39368226 18.27431166 21.30263958 21.19140625 35.78515625 C21.21729503 37.78498869 21.22111286 39.78537688 21.19140625 41.78515625 C21.95283936 41.82479492 22.71427246 41.86443359 23.4987793 41.90527344 C26.96017496 42.09621062 30.41922711 42.3153778 33.87890625 42.53515625 C35.67618164 42.62796875 35.67618164 42.62796875 37.50976562 42.72265625 C38.66669922 42.8 39.82363281 42.87734375 41.015625 42.95703125 C42.07869873 43.01987305 43.14177246 43.08271484 44.23706055 43.14746094 C47.8393378 43.92501223 49.6100089 45.18235233 52.19140625 47.78515625 C52.75390625 51.28515625 52.75390625 51.28515625 52.19140625 54.78515625 C50.19102898 57.36280245 49.0167609 58.62864789 45.7722168 59.24389648 C34.48107277 58.90046509 23.25104077 57.87108467 12.00390625 56.84765625 C7.92741366 56.48058177 3.85060081 56.11735993 -0.2265625 55.7578125 C-1.21244354 55.6704483 -2.19832458 55.58308411 -3.21408081 55.49307251 C-10.16798139 54.89072063 -17.11997971 54.4292739 -24.0933075 54.12355042 C-26.95939586 53.99006704 -29.74724903 53.79552818 -32.578125 53.31689453 C-37.48645501 52.50897866 -42.42440659 52.20939722 -47.3828125 51.84375 C-48.52167404 51.75782089 -49.66053558 51.67189178 -50.83390808 51.58335876 C-59.28753731 50.95281093 -67.74461017 50.38078927 -76.203125 49.8203125 C-79.80010593 49.57773883 -83.39702054 49.33421311 -86.99389648 49.09008789 C-89.44934305 48.92597276 -91.90508782 48.76626985 -94.36108398 48.6105957 C-97.97602952 48.38017697 -101.58950855 48.13310854 -105.203125 47.8828125 C-106.29881302 47.81707535 -107.39450104 47.7513382 -108.52339172 47.68360901 C-118.01569992 46.99840518 -118.01569992 46.99840518 -121.80859375 43.78515625 C-123.22901196 40.94431984 -123.12311647 38.93038347 -122.80859375 35.78515625 C-120.64322341 32.89409423 -119.48401549 31.88974203 -115.87597656 31.33105469 C-114.76577148 31.35200195 -113.65556641 31.37294922 -112.51171875 31.39453125 C-110.70380859 31.41386719 -110.70380859 31.41386719 -108.859375 31.43359375 C-107.60511719 31.46710938 -106.35085937 31.500625 -105.05859375 31.53515625 C-103.78886719 31.55320313 -102.51914063 31.57125 -101.2109375 31.58984375 C-98.07606298 31.63698472 -94.94270815 31.70277961 -91.80859375 31.78515625 C-91.04675781 30.191875 -91.04675781 30.191875 -90.26953125 28.56640625 C-86.65795373 21.11697734 -83.1167663 14.19215433 -77.80859375 7.78515625 C-77.14859375 6.79515625 -76.48859375 5.80515625 -75.80859375 4.78515625 C-75.14859375 4.78515625 -74.48859375 4.78515625 -73.80859375 4.78515625 C-73.31359375 3.30015625 -73.31359375 3.30015625 -72.80859375 1.78515625 C-66.1354315 -4.23209689 -58.23324052 -7.43199269 -49.80859375 -10.21484375 C-49.08800781 -10.46234375 -48.36742187 -10.70984375 -47.625 -10.96484375 C-31.35013036 -15.83715399 -13.39317461 -9.36803447 0 0 Z " fill="#111D2C" transform="translate(296.80859375,58.21484375)"/>
<path d="M0 0 C9.59839612 -0.12414097 19.05205511 0.21258849 28.625 0.9375 C29.86378906 1.02451172 31.10257813 1.11152344 32.37890625 1.20117188 C41.52420848 1.87143018 41.52420848 1.87143018 43.81520081 2.49050903 C46.47464208 3.11068562 49.03278315 3.28079777 51.7590332 3.44897461 C52.9173616 3.5225267 54.07569 3.5960788 55.26911926 3.67185974 C56.51706772 3.74791946 57.76501617 3.82397919 59.05078125 3.90234375 C61.01785784 4.02860087 62.98493389 4.1548671 64.95197582 4.28166294 C69.79560907 4.59284318 74.63971262 4.89637563 79.48413086 5.19506836 C82.2034253 5.36303278 84.92240116 5.53512779 87.64115906 5.71156311 C90.19837633 5.87722966 92.75600488 6.03669419 95.31404114 6.18919373 C101.1509748 6.57258424 106.46804152 7.05444479 112 9 C113.03995831 26.13042441 108.17834433 40.51219381 97.3125 53.75 C87.31965354 64.37945637 74.43956746 70.41335551 59.953125 71.15625 C42.99487416 71.60847002 28.67094602 67.4060705 16 56 C1.58416985 41.98526496 -1.88075054 25.74719713 -2.23046875 6.2265625 C-1.97373193 3.74622377 -1.15738874 2.18519123 0 0 Z " fill="#101C2B" transform="translate(204,123)"/>
<path d="M0 0 C2.68156889 2.0497078 4.68811378 3.64839851 5.4697876 7.03588867 C5.66180074 9.536888 5.69300254 11.99174798 5.6640625 14.5 C5.66884613 15.41330078 5.67362976 16.32660156 5.67855835 17.26757812 C5.68195317 19.19402799 5.67277994 21.12053579 5.65185547 23.046875 C5.62508281 25.99089348 5.65161622 28.9310997 5.68359375 31.875 C5.68028958 33.75000839 5.67388318 35.62501442 5.6640625 37.5 C5.67418365 38.37720703 5.68430481 39.25441406 5.69473267 40.15820312 C5.60999794 44.59018107 5.43580013 46.44036546 2.63037109 50.04296875 C-0.4820571 52.35865692 -2.1417549 52.77740894 -6 53 C-6.95326172 53.05800781 -6.95326172 53.05800781 -7.92578125 53.1171875 C-18.86784873 53.47725553 -29.33796067 52.11133066 -38 45 C-44.70627107 38.00093954 -46.54985026 30.90819873 -46.375 21.32421875 C-45.61184965 14.55920885 -42.6804145 9.21710715 -37.6875 4.625 C-27.44855185 -3.24939803 -11.60989151 -7.16355008 0 0 Z " fill="#141F2D" transform="translate(458,314)"/>
<path d="M0 0 C0.90131653 0.16298584 1.80263306 0.32597168 2.73126221 0.49389648 C8.23370879 1.27289073 13.75404163 1.1226135 19.29980469 1.09765625 C21.13822937 1.09546585 21.13822937 1.09546585 23.01379395 1.0932312 C25.67266696 1.08943085 28.33146371 1.08382568 30.9903183 1.07516479 C35.22411344 1.06152917 39.45789823 1.05572218 43.69171143 1.05102539 C53.4693553 1.03901254 63.24697237 1.01716353 73.02459717 0.99479675 C81.93973499 0.97444941 90.85486234 0.95638527 99.77001882 0.94658184 C103.27462036 0.94248693 106.77918966 0.93634009 110.28377533 0.92483521 C124.13518991 0.88002106 137.97579411 0.9319899 151.82128906 1.375 C152.90935223 1.40508652 153.99741539 1.43517303 155.11845016 1.46617126 C163.80532791 1.78947463 171.74153524 3.28090364 180 6 C180 6.33 180 6.66 180 7 C176.04 6.67 172.08 6.34 168 6 C168 5.34 168 4.68 168 4 C166.97981246 4.3250395 165.95962492 4.650079 164.90852261 4.98496819 C161.37011929 5.99111302 158.15713767 6.24670099 154.46363831 6.24050903 C153.19189255 6.24325836 151.92014679 6.24600769 150.60986328 6.24884033 C149.2185049 6.24176391 147.82714748 6.23449432 146.43579102 6.22705078 C144.95694486 6.22648607 143.47809815 6.2268044 141.99925232 6.22793579 C137.99974482 6.22850796 134.00035809 6.21677566 130.00087857 6.20278788 C125.81552832 6.19025787 121.63017508 6.18910823 117.44480896 6.18673706 C109.52600519 6.18052895 101.60725685 6.16412721 93.68847746 6.14403808 C84.67035666 6.12165823 75.65223317 6.11068041 66.6340915 6.10064721 C48.08936294 6.07976038 29.54468593 6.04459744 11 6 C11 5.67 11 5.34 11 5 C9.35 4.67 7.7 4.34 6 4 C6 3.34 6 2.68 6 2 C4.02 2 2.04 2 0 2 C0 1.34 0 0.68 0 0 Z " fill="#393F49" transform="translate(173,214)"/>
<path d="M0 0 C0.66 0.66 1.32 1.32 2 2 C-1.465 3.485 -1.465 3.485 -5 5 C-5.00423194 5.75060133 -5.00846388 6.50120266 -5.01282406 7.27454948 C-5.11601967 25.51789716 -5.22464063 43.76120509 -5.33933926 62.00448418 C-5.39467452 70.82670632 -5.44815701 79.6489325 -5.49731445 88.47119141 C-5.54015258 96.15849007 -5.58642962 103.84575893 -5.63687855 111.53301156 C-5.66348249 115.60530991 -5.68833563 119.67760235 -5.70907402 123.74993515 C-5.72863146 127.5797172 -5.75277254 131.40944248 -5.78049088 135.23917389 C-5.78986605 136.64769843 -5.79753965 138.05623543 -5.80341911 139.4647789 C-5.81167226 141.38213293 -5.82653798 143.29945516 -5.84178162 145.21676636 C-5.85146044 146.82898229 -5.85146044 146.82898229 -5.8613348 148.47376823 C-6 151 -6 151 -7 153 C24.02 153 55.04 153 87 153 C87 153.33 87 153.66 87 154 C55.32 154 23.64 154 -9 154 C-9 103.51 -9 53.02 -9 1 C-5.98675805 -0.50662097 -3.31713623 -0.17770373 0 0 Z " fill="#353843" transform="translate(262,282)"/>
<path d="M0 0 C1.32 0 2.64 0 4 0 C4 0.99 4 1.98 4 3 C3.01 3.33 2.02 3.66 1 4 C1.33 53.5 1.66 103 2 154 C3.98 154 5.96 154 8 154 C8 154.33 8 154.66 8 155 C5.03 155.33 2.06 155.66 -1 156 C-2.37121134 153.25757733 -2.12910326 151.0733248 -2.13371277 148.00244141 C-2.13797775 146.72363098 -2.14224274 145.44482056 -2.14663696 144.1272583 C-2.14628742 142.70202634 -2.14582587 141.2767944 -2.14526367 139.8515625 C-2.1482544 138.35699377 -2.15165672 136.86242582 -2.15544128 135.36785889 C-2.16429331 131.30185289 -2.16661987 127.23586791 -2.16725707 123.16985321 C-2.16820507 119.77995136 -2.17188202 116.39005445 -2.17542917 113.0001545 C-2.18357793 105.00595984 -2.18601298 97.01177645 -2.18530273 89.01757812 C-2.1847015 80.75942366 -2.19526151 72.50133443 -2.2110464 64.24319649 C-2.22410128 57.16207635 -2.22948751 50.08097759 -2.22884732 42.9998455 C-2.22859177 38.76657699 -2.23147429 34.53336644 -2.24202538 30.30010986 C-2.2516722 26.32091928 -2.2518092 22.34184249 -2.24450874 18.36264801 C-2.2434587 16.89928268 -2.24585051 15.43591039 -2.2518692 13.97255707 C-2.25953255 11.98090505 -2.25377078 9.98921464 -2.24723816 7.99755859 C-2.24778293 6.88109955 -2.24832769 5.7646405 -2.24888897 4.61434937 C-2 2 -2 2 0 0 Z " fill="#20242E" transform="translate(359,279)"/>
<path d="M0 0 C0.66 0 1.32 0 2 0 C2 49.5 2 99 2 150 C1.01 150 0.02 150 -1 150 C-0.67 100.5 -0.34 51 0 0 Z " fill="#09101A" transform="translate(346,285)"/>
<path d="M0 0 C5.37454097 2.68727048 10.01328275 5.61263833 13 11 C13.07961874 15.69750569 12.21537344 18.60367481 9 22 C6.22265625 23.08203125 6.22265625 23.08203125 3.0625 23.8125 C2.02222656 24.06644531 0.98195313 24.32039063 -0.08984375 24.58203125 C-2.85285048 24.97886577 -4.4419255 25.06240217 -7 24 C-7.33 23.34 -7.66 22.68 -8 22 C-6.02 21.67 -4.04 21.34 -2 21 C-1.938125 20.34 -1.87625 19.68 -1.8125 19 C-0.84600343 15.43139729 0.83850109 12.97324915 2.94140625 9.96484375 C4.3162057 7.7850721 4.3162057 7.7850721 4 4 C3.01 4 2.02 4 1 4 C0.67 2.68 0.34 1.36 0 0 Z " fill="#1A222D" transform="translate(380,232)"/>
<path d="M0 0 C1.79275866 3.11910856 2.34290718 5.67682428 2.625 9.25 C2.69976562 10.14203125 2.77453125 11.0340625 2.8515625 11.953125 C2.90054687 12.62859375 2.94953125 13.3040625 3 14 C3.76143311 14.03963867 4.52286621 14.07927734 5.30737305 14.12011719 C8.76876871 14.31105437 12.22782086 14.53022155 15.6875 14.75 C17.48477539 14.8428125 17.48477539 14.8428125 19.31835938 14.9375 C20.47529297 15.01484375 21.63222656 15.0921875 22.82421875 15.171875 C24.41882935 15.2661377 24.41882935 15.2661377 26.0456543 15.36230469 C29.64793155 16.13985598 31.41860265 17.39719608 34 20 C34.5625 23.5 34.5625 23.5 34 27 C32.00762779 29.56337258 30.8299717 30.84041281 27.6027832 31.4609375 C16.09542419 31.11570692 4.64899843 30.04939751 -6.8125 29 C-8.96935407 28.80676663 -11.12625486 28.61405404 -13.28320312 28.421875 C-18.52268928 27.95392009 -23.76156191 27.47953765 -29 27 C-29 26.67 -29 26.34 -29 26 C-18.46264 25.87924078 -8.00400237 26.14741841 2.51367188 26.79956055 C4.79002348 26.9399687 7.06679317 27.07098386 9.34375 27.20117188 C10.80732428 27.28851769 12.27086739 27.37638783 13.734375 27.46484375 C15.68682129 27.58267212 15.68682129 27.58267212 17.67871094 27.70288086 C21 28 21 28 23.26660156 28.65844727 C25.34458751 29.27950795 25.34458751 29.27950795 28 27 C28.99 27.33 29.98 27.66 31 28 C31 27.01 31 26.02 31 25 C31.66 25 32.32 25 33 25 C31.91215032 21.75016865 31.91215032 21.75016865 30 19 C28.18453868 18.79592488 26.36218807 18.65245768 24.5390625 18.53515625 C22.87230469 18.41817383 22.87230469 18.41817383 21.171875 18.29882812 C18.81532635 18.14181139 16.45855216 17.98814218 14.1015625 17.83789062 C12.9878125 17.75861328 11.8740625 17.67933594 10.7265625 17.59765625 C9.70127441 17.53070557 8.67598633 17.46375488 7.61962891 17.39477539 C5 17 5 17 2 15 C0.03711588 9.83451546 -0.19054727 5.43059731 0 0 Z " fill="#4C505A" transform="translate(315,86)"/>
<path d="M0 0 C1.32 0 2.64 0 4 0 C4 0.99 4 1.98 4 3 C3.01 3.33 2.02 3.66 1 4 C1 4.99 1 5.98 1 7 C0.34 7 -0.32 7 -1 7 C-1 55.51 -1 104.02 -1 154 C-1.33 154 -1.66 154 -2 154 C-2.04666923 134.21621324 -2.08196388 114.4324376 -2.10362434 94.64860725 C-2.11394787 85.46314787 -2.12802869 76.27772263 -2.15087891 67.09228516 C-2.17077991 59.08858527 -2.1837086 51.08491011 -2.18817699 43.08118618 C-2.19078996 38.84117312 -2.19695378 34.60123082 -2.21146011 30.36124039 C-2.22499214 26.37387871 -2.22923157 22.38661723 -2.22621536 18.39923477 C-2.2267675 16.93264217 -2.23077097 15.46604637 -2.23841095 13.99947357 C-2.2483032 12.00334572 -2.2447909 10.00716462 -2.24050903 8.01101685 C-2.24235262 6.89196016 -2.24419621 5.77290348 -2.24609566 4.61993599 C-2 2 -2 2 0 0 Z " fill="#6D6E73" transform="translate(359,279)"/>
<path d="M0 0 C0.0578304 4.45827926 0.09353855 8.9164628 0.125 13.375 C0.14175781 14.64601563 0.15851563 15.91703125 0.17578125 17.2265625 C0.18222656 18.43828125 0.18867188 19.65 0.1953125 20.8984375 C0.20578613 22.01911621 0.21625977 23.13979492 0.22705078 24.29443359 C0 27 0 27 -2 29 C-2.99 28.67 -3.98 28.34 -5 28 C-4.34 28 -3.68 28 -3 28 C-3 19.42 -3 10.84 -3 2 C-3.99 3.485 -3.99 3.485 -5 5 C-7.24658203 5.34057617 -7.24658203 5.34057617 -10.0078125 5.29296875 C-10.99394531 5.28330078 -11.98007812 5.27363281 -12.99609375 5.26367188 C-14.02863281 5.23853516 -15.06117188 5.21339844 -16.125 5.1875 C-17.68541016 5.16719727 -17.68541016 5.16719727 -19.27734375 5.14648438 C-21.85207627 5.11105228 -24.4257833 5.06165221 -27 5 C-23.19990826 3.00389175 -19.33019763 1.87208194 -15.1875 0.8125 C-14.50107422 0.62236328 -13.81464844 0.43222656 -13.10742188 0.23632812 C-8.35237399 -0.98279957 -4.81254989 -0.98767364 0 0 Z " fill="#424651" transform="translate(435,264)"/>
<path d="M0 0 C4.875 0.875 4.875 0.875 6 2 C6.12584451 4.78821858 6.18866347 7.55032711 6.203125 10.33984375 C6.20882507 11.17713516 6.21452515 12.01442657 6.22039795 12.87709045 C6.22986154 14.65168997 6.23638731 16.42630716 6.24023438 18.20092773 C6.24994709 20.92267323 6.28095987 23.6436661 6.3125 26.36523438 C6.31902899 28.085933 6.32427987 29.80663704 6.328125 31.52734375 C6.3404718 32.34508774 6.3528186 33.16283173 6.36553955 34.00535583 C6.35644531 36.30053711 6.35644531 36.30053711 6 40 C2.68629 42.20914 1.6553979 42.22481553 -2.1875 42.125 C-3.08855469 42.10695313 -3.98960937 42.08890625 -4.91796875 42.0703125 C-5.60503906 42.04710937 -6.29210937 42.02390625 -7 42 C-7 41.34 -7 40.68 -7 40 C-3.7 40 -0.4 40 3 40 C3 27.79 3 15.58 3 3 C1.68 2.67 0.36 2.34 -1 2 C-0.67 1.34 -0.34 0.68 0 0 Z " fill="#3E414A" transform="translate(429,384)"/>
<path d="M0 0 C0.33 0 0.66 0 1 0 C1.78754437 6.38473475 2.08286043 12.72601664 2.0625 19.15625 C2.06117065 19.93290009 2.05984131 20.70955017 2.05847168 21.50973511 C2.02220679 30.7183778 1.76450373 39.92062531 1.5 49.125 C1.45159668 50.87369167 1.40341867 52.62238959 1.35546875 54.37109375 C1.23956074 58.58080534 1.12065874 62.79042201 1 67 C1.99 67 2.98 67 4 67 C4 67.66 4 68.32 4 69 C4.99 69.33 5.98 69.66 7 70 C1.58948043 69.39883116 1.58948043 69.39883116 -0.68940735 67.85697937 C-2.6419087 65.09047925 -2.27836823 62.9549115 -2.15698242 59.60083008 C-2.13791336 58.95665634 -2.1188443 58.3124826 -2.09919739 57.64878845 C-2.03258523 55.52159798 -1.94413094 53.39590734 -1.85546875 51.26953125 C-1.80499423 49.79412808 -1.75588402 48.31867766 -1.70808411 46.84318542 C-1.57865018 42.96118199 -1.43068008 39.08009775 -1.27886963 35.19891357 C-1.12720935 31.23781467 -0.99304745 27.27612771 -0.85742188 23.31445312 C-0.58875927 15.54228629 -0.30051616 7.7710073 0 0 Z " fill="#4B4D5B" transform="translate(165,344)"/>
<path d="M0 0 C3.5625 0.3125 3.5625 0.3125 5.5 1.5625 C6.5625 3.3125 6.5625 3.3125 6.5625 7.3125 C5.9025 7.3125 5.2425 7.3125 4.5625 7.3125 C4.5625 8.3025 4.5625 9.2925 4.5625 10.3125 C3.22916667 10.64583333 1.89583333 10.97916667 0.5625 11.3125 C-0.13875 11.51875 -0.84 11.725 -1.5625 11.9375 C-3.4375 12.3125 -3.4375 12.3125 -5.4375 11.3125 C-7.80873246 11.08220044 -10.18491943 10.90130058 -12.5625 10.75 C-13.84382813 10.66621094 -15.12515625 10.58242187 -16.4453125 10.49609375 C-17.43273437 10.43550781 -18.42015625 10.37492187 -19.4375 10.3125 C-19.1075 9.6525 -18.7775 8.9925 -18.4375 8.3125 C-14.4775 8.3125 -10.5175 8.3125 -6.4375 8.3125 C-6.31375 7.36375 -6.19 6.415 -6.0625 5.4375 C-5.18264549 1.03822747 -4.48898483 0.40808953 0 0 Z " fill="#101722" transform="translate(341.4375,103.6875)"/>
<path d="M0 0 C0.33 0 0.66 0 1 0 C1.10604475 24.02158301 1.1768228 48.00032644 0 72 C-0.66 72 -1.32 72 -2 72 C-2.10514941 56.80186545 -2.08852172 41.62824881 -1.5625 26.4375 C-1.52326416 25.28161377 -1.48402832 24.12572754 -1.44360352 22.93481445 C-1.1549129 15.2720456 -0.64114813 7.64106963 0 0 Z " fill="#666973" transform="translate(168,271)"/>
<path d="M0 0 C1.93871579 0.26198862 3.87591483 0.53520084 5.8125 0.8125 C7.43091797 1.03873047 7.43091797 1.03873047 9.08203125 1.26953125 C14.12097784 2.20899587 19.05483705 3.6513192 24 5 C23.67 25.13 23.34 45.26 23 66 C22.67 66 22.34 66 22 66 C21.83124129 58.58032062 21.6714526 51.16048644 21.51782227 43.74047852 C21.46453785 41.21764784 21.40921971 38.69485924 21.35180664 36.17211914 C21.2695165 32.54061963 21.1946032 28.90903033 21.12109375 25.27734375 C21.09405869 24.15416245 21.06702362 23.03098114 21.03916931 21.87376404 C21.01907303 20.8131929 20.99897675 19.75262177 20.97827148 18.65991211 C20.95828598 17.73391708 20.93830048 16.80792206 20.91770935 15.85386658 C21.01295073 12.55086455 21.53269082 9.27116423 22 6 C17.05 6 12.1 6 7 6 C7 5.01 7 4.02 7 3 C4.36 3 1.72 3 -1 3 C-0.67 2.01 -0.34 1.02 0 0 Z " fill="#51545B" transform="translate(222,274)"/>
<path d="M0 0 C0.99 0.33 1.98 0.66 3 1 C3.75 3.75 3.75 3.75 4 7 C2.5625 9.375 2.5625 9.375 0 11 C-5.1086324 11.75373265 -7.77915051 11.50510785 -12 8.5 C-12.99 7.675 -13.98 6.85 -15 6 C-14.67 5.01 -14.34 4.02 -14 3 C-12.68 3 -11.36 3 -10 3 C-9.67 3.66 -9.34 4.32 -9 5 C-6.36 4.67 -3.72 4.34 -1 4 C-0.67 2.68 -0.34 1.36 0 0 Z " fill="#1A1E27" transform="translate(145,247)"/>
<path d="M0 0 C0.33 0 0.66 0 1 0 C0.67 2.97 0.34 5.94 0 9 C-2.64590014 9.02684679 -5.29153096 9.04676357 -7.9375 9.0625 C-9.06961914 9.07506836 -9.06961914 9.07506836 -10.22460938 9.08789062 C-12.14994313 9.09652441 -14.07535581 9.05224333 -16 9 C-16.33 8.67 -16.66 8.34 -17 8 C-18.79487005 8.0643113 -20.58738778 8.20139986 -22.375 8.375 C-23.84066406 8.51035156 -23.84066406 8.51035156 -25.3359375 8.6484375 C-28.09763899 8.92732802 -28.09763899 8.92732802 -31 10 C-31 10.99 -31 11.98 -31 13 C-30.34 13.33 -29.68 13.66 -29 14 C-29.66 14 -30.32 14 -31 14 C-30.67 15.65 -30.34 17.3 -30 19 C-30.99 18.67 -31.98 18.34 -33 18 C-34.42041821 15.15916359 -34.31452272 13.14522722 -34 10 C-31.83462966 7.10893798 -30.67542174 6.10458578 -27.06738281 5.54589844 C-25.95717773 5.5668457 -24.84697266 5.58779297 -23.703125 5.609375 C-21.89521484 5.62871094 -21.89521484 5.62871094 -20.05078125 5.6484375 C-18.79652344 5.68195313 -17.54226562 5.71546875 -16.25 5.75 C-14.98027344 5.76804687 -13.71054688 5.78609375 -12.40234375 5.8046875 C-9.26746923 5.85182847 -6.1341144 5.91762336 -3 6 C-2.01 4.02 -1.02 2.04 0 0 Z " fill="#63646C" transform="translate(208,84)"/>
<path d="M0 0 C1.15749563 2.19041774 2.12174541 4.33345529 2.97265625 6.6640625 C5.56351428 13.70302447 8.77236924 18.57877793 14.01171875 23.94140625 C16 26 16 26 18 29 C16.35 28.67 14.7 28.34 13 28 C13 27.01 13 26.02 13 25 C11.02 25.33 9.04 25.66 7 26 C7 25.01 7 24.02 7 23 C6.01971384 21.65210653 5.02028865 20.31787285 4 19 C4 18.34 4 17.68 4 17 C3.34 17 2.68 17 2 17 C1.67 17.66 1.34 18.32 1 19 C-0.76827834 16.2955743 -1.01886461 15.15720512 -0.625 11.875 C-0.41875 10.92625 -0.2125 9.9775 0 9 C0 8.34 0 7.68 0 7 C0 4.66666667 0 2.33333333 0 0 Z " fill="#303742" transform="translate(394,348)"/>
<path d="M0 0 C0.33 0 0.66 0 1 0 C1.82744249 5.86571333 2.19773829 11.61179619 2.31640625 17.53125 C2.33718735 18.40777222 2.35796844 19.28429443 2.37937927 20.18737793 C2.44420883 22.95818042 2.50344658 25.72906901 2.5625 28.5 C2.60574873 30.39063352 2.64936493 32.28125868 2.69335938 34.171875 C2.79982085 38.78116416 2.90127119 43.39053899 3 48 C2.34 48 1.68 48 1 48 C1 51.63 1 55.26 1 59 C0.67 59 0.34 59 0 59 C-0.16897137 51.88347289 -0.32871794 44.76678071 -0.48217773 37.64990234 C-0.53541175 35.2309098 -0.59072535 32.81196206 -0.64819336 30.39306641 C-0.73062557 26.90797585 -0.80547649 23.42279046 -0.87890625 19.9375 C-0.90594131 18.86322754 -0.93297638 17.78895508 -0.96083069 16.68212891 C-1.07276876 10.99810937 -0.87658953 5.61961775 0 0 Z " fill="#091120" transform="translate(242,293)"/>
<path d="M0 0 C4.58357376 0.13882854 9.16678696 0.28726748 13.75 0.4375 C15.05195313 0.47681641 16.35390625 0.51613281 17.6953125 0.55664062 C18.94570312 0.59853516 20.19609375 0.64042969 21.484375 0.68359375 C22.63647461 0.72025146 23.78857422 0.75690918 24.97558594 0.79467773 C27.51609883 0.96714878 29.5580384 1.37707478 32 2 C34.24170183 2.21373794 36.48736424 2.38732659 38.734375 2.53515625 C40.02988281 2.62216797 41.32539063 2.70917969 42.66015625 2.79882812 C44.02343243 2.88679728 45.38671375 2.9746869 46.75 3.0625 C48.12892834 3.15396449 49.50783491 3.24575775 50.88671875 3.33789062 C54.25761226 3.5618311 57.62869196 3.7824043 61 4 C61 4.33 61 4.66 61 5 C55.06 5.33 49.12 5.66 43 6 C43 5.34 43 4.68 43 4 C41.78441406 4.01160156 40.56882812 4.02320313 39.31640625 4.03515625 C37.73177236 4.04453278 36.14713682 4.05363313 34.5625 4.0625 C33.76005859 4.07087891 32.95761719 4.07925781 32.13085938 4.08789062 C30.08704779 4.0965143 28.04316098 4.0522815 26 4 C25.67 3.67 25.34 3.34 25 3 C23.57195261 2.85533097 22.13745576 2.77300637 20.703125 2.71875 C19.8265625 2.68136719 18.95 2.64398438 18.046875 2.60546875 C17.12390625 2.57066406 16.2009375 2.53585938 15.25 2.5 C13.44256678 2.43068083 11.63526352 2.35786845 9.828125 2.28125 C9.0227832 2.25095703 8.21744141 2.22066406 7.38769531 2.18945312 C4.86429563 1.98923245 2.47059865 1.54219268 0 1 C0 0.67 0 0.34 0 0 Z " fill="#596068" transform="translate(218,124)"/>
<path d="M0 0 C-1 2 -1 2 -3.5625 3.0625 C-6.71124857 3.92124961 -9.70097644 4.31298235 -12.9375 4.65625 C-15.07946445 5.01324408 -16.86388448 5.62656632 -18.875 6.4375 C-26.09556396 9.32572558 -33.26481019 10.28648851 -41 10 C-38.44713738 7.44713738 -36.66341118 7.30858579 -33.14453125 6.5625 C-31.37432617 6.17964844 -31.37432617 6.17964844 -29.56835938 5.7890625 C-28.32892578 5.52867187 -27.08949219 5.26828125 -25.8125 5 C-23.38109799 4.4810954 -20.95009531 3.96031552 -18.51953125 3.4375 C-17.37959717 3.19241699 -16.23966309 2.94733398 -15.06518555 2.69482422 C-12.61812282 2.14011769 -10.22432079 1.53333637 -7.8203125 0.8203125 C-5.05933639 0.01725851 -2.85692557 -0.173147 0 0 Z " fill="#464E56" transform="translate(408,269)"/>
<path d="M0 0 C0.66 0.33 1.32 0.66 2 1 C1.505 1.37125 1.01 1.7425 0.5 2.125 C-1.31234752 3.99023914 -1.31234752 3.99023914 -1 7 C-1 10 -1 10 -2.4375 11.875 C-4 13 -4 13 -5 13 C-5.33 17.62 -5.66 22.24 -6 27 C-8.66121201 21.67757598 -9.57845556 18.21056282 -7.8125 12.5 C-6.01740313 7.61700713 -3.70367975 3.70367975 0 0 Z " fill="#606067" transform="translate(32,87)"/>
<path d="M0 0 C2.01822917 0.06510417 4.03645833 0.13020833 6.0546875 0.1953125 C5.4359375 0.2778125 4.8171875 0.3603125 4.1796875 0.4453125 C1.87031183 1.00789709 1.87031183 1.00789709 0.8046875 3.2578125 C0.5571875 3.8971875 0.3096875 4.5365625 0.0546875 5.1953125 C1.0446875 6.6803125 1.0446875 6.6803125 2.0546875 8.1953125 C5.62238302 8.93137749 5.62238302 8.93137749 9.0546875 9.1953125 C9.0546875 9.8553125 9.0546875 10.5153125 9.0546875 11.1953125 C5.0946875 11.1953125 1.1346875 11.1953125 -2.9453125 11.1953125 C-3.9453125 6.1953125 -3.9453125 6.1953125 -3.9453125 2.1953125 C-1.9453125 0.1953125 -1.9453125 0.1953125 0 0 Z " fill="#111420" transform="translate(180.9453125,91.8046875)"/>
<path d="M0 0 C0.33 0 0.66 0 1 0 C0.67 11.22 0.34 22.44 0 34 C-0.66 34 -1.32 34 -2 34 C-2 24.1 -2 14.2 -2 4 C-1.34 4 -0.68 4 0 4 C0 2.68 0 1.36 0 0 Z " fill="#4E545E" transform="translate(168,309)"/>
<path d="M0 0 C7.92 0 15.84 0 24 0 C24 0.66 24 1.32 24 2 C29.94 2 35.88 2 42 2 C42.495 2.99 42.495 2.99 43 4 C28.58537604 3.54474291 14.31937528 2.73926374 0 1 C0 0.67 0 0.34 0 0 Z " fill="#4E505B" transform="translate(224,107)"/>
<path d="M0 0 C0.99 0 1.98 0 3 0 C2.67 0.99 2.34 1.98 2 3 C1.34 3 0.68 3 0 3 C-0.33 4.32 -0.66 5.64 -1 7 C-0.34 7 0.32 7 1 7 C0.67 7.99 0.34 8.98 0 10 C-0.66 10 -1.32 10 -2 10 C-1.67 11.32 -1.34 12.64 -1 14 C-1.99 14 -2.98 14 -4 14 C-4.33 17.63 -4.66 21.26 -5 25 C-5.66 25 -6.32 25 -7 25 C-7 20.71 -7 16.42 -7 12 C-6.01 11.67 -5.02 11.34 -4 11 C-3.87625 10.0925 -3.7525 9.185 -3.625 8.25 C-3.01159156 5.06027613 -2.34185996 2.34185996 0 0 Z " fill="#0E1520" transform="translate(33,88)"/>
<path d="M0 0 C5.36318737 2.68159368 10.03553673 5.61006678 13 11 C13 14.8125 13 14.8125 12 18 C11.34 18.66 10.68 19.32 10 20 C10 16.37 10 12.74 10 9 C9.01 9 8.02 9 7 9 C7 10.32 7 11.64 7 13 C6.01 12.67 5.02 12.34 4 12 C4.99 10.02 5.98 8.04 7 6 C6.01 6 5.02 6 4 6 C4 5.34 4 4.68 4 4 C3.01 4 2.02 4 1 4 C0.67 2.68 0.34 1.36 0 0 Z " fill="#484C53" transform="translate(380,232)"/>
<path d="M0 0 C3 1 3 1 5 4 C5.24050903 5.95524597 5.24050903 5.95524597 5.22705078 8.19604492 C5.22689972 9.03668991 5.22674866 9.8773349 5.22659302 10.74345398 C5.21627045 11.64666885 5.20594788 12.54988373 5.1953125 13.48046875 C5.1924826 14.40845779 5.18965271 15.33644684 5.18673706 16.29255676 C5.17553836 19.25766879 5.15043435 22.22247921 5.125 25.1875 C5.1149698 27.19726126 5.10584402 29.20702726 5.09765625 31.21679688 C5.07560004 36.14464753 5.04107229 41.07227262 5 46 C4.67 46 4.34 46 4 46 C4 32.8 4 19.6 4 6 C2.68 5.67 1.36 5.34 0 5 C0 3.35 0 1.7 0 0 Z " fill="#3F414C" transform="translate(458,315)"/>
<path d="M0 0 C24.68871595 -0.3151751 24.68871595 -0.3151751 35 2 C35 2.33 35 2.66 35 3 C11.41761516 3.41277905 11.41761516 3.41277905 0 1 C0 0.67 0 0.34 0 0 Z " fill="#5D5F67" transform="translate(279,129)"/>
<path d="M0 0 C0.66 0 1.32 0 2 0 C0.70949166 6.96874506 -2.14810336 12.08891333 -6 18 C-7 14.125 -7 14.125 -7 13 C-7.33 12.01 -7.66 11.02 -8 10 C-6.6875 8.5 -6.6875 8.5 -5 7 C-4.01 7 -3.02 7 -2 7 C-2 5.68 -2 4.36 -2 3 C-1.34 3 -0.68 3 0 3 C0 2.01 0 1.02 0 0 Z " fill="#292D39" transform="translate(311,154)"/>
<path d="M0 0 C0 0.33 0 0.66 0 1 C-9.57 1 -19.14 1 -29 1 C-29 0.67 -29 0.34 -29 0 C-19.1791009 -3.02181511 -9.87130867 -2.63234898 0 0 Z " fill="#606178" transform="translate(276,48)"/>
<path d="M0 0 C4.875 4.625 4.875 4.625 6 8 C6.99 8.33 7.98 8.66 9 9 C7.25 10.125 7.25 10.125 5 11 C2.875 10.1875 2.875 10.1875 1 9 C0.34 8.67 -0.32 8.34 -1 8 C-1 7.34 -1 6.68 -1 6 C-1.66 5.67 -2.32 5.34 -3 5 C-2.34 5 -1.68 5 -1 5 C-0.67 3.35 -0.34 1.7 0 0 Z " fill="#384149" transform="translate(117,171)"/>
<path d="M0 0 C2 0 2 0 3.5625 1 C5.80812461 4.12434729 5.68834566 7.19781708 6 11 C7.32 10.01 8.64 9.02 10 8 C10 9.32 10 10.64 10 12 C9.34 12 8.68 12 8 12 C8.66 13.32 9.32 14.64 10 16 C9.01 16 8.02 16 7 16 C5.82845707 13.71070947 4.66261926 11.41881638 3.5 9.125 C3.16613281 8.47402344 2.83226562 7.82304688 2.48828125 7.15234375 C0 2.2265625 0 2.2265625 0 0 Z " fill="#3B3B46" transform="translate(26,114)"/>
<path d="M0 0 C3.875 1.75 3.875 1.75 5 4 C5.66 3.67 6.32 3.34 7 3 C6.95875 3.7425 6.9175 4.485 6.875 5.25 C7.00593589 8.13058965 7.66850671 9.50345008 9 12 C9 12.99 9 13.98 9 15 C9.66 15 10.32 15 11 15 C10.67 16.32 10.34 17.64 10 19 C8.32992313 16.02273264 6.66451428 13.0428803 5 10.0625 C4.28457031 8.78729492 4.28457031 8.78729492 3.5546875 7.48632812 C3.10351562 6.67744141 2.65234375 5.86855469 2.1875 5.03515625 C1.76855469 4.2862915 1.34960938 3.53742676 0.91796875 2.76586914 C0 1 0 1 0 0 Z " fill="#494E57" transform="translate(59,174)"/>
<path d="M0 0 C1.21236328 0.04060547 1.21236328 0.04060547 2.44921875 0.08203125 C3.06410156 0.11683594 3.67898437 0.15164062 4.3125 0.1875 C4.3125 0.5175 4.3125 0.8475 4.3125 1.1875 C3.384375 1.331875 2.45625 1.47625 1.5 1.625 C-1.69475111 2.10850111 -1.69475111 2.10850111 -4.6875 3.1875 C-4.6875 4.1775 -4.6875 5.1675 -4.6875 6.1875 C-4.0275 6.5175 -3.3675 6.8475 -2.6875 7.1875 C-3.3475 7.1875 -4.0075 7.1875 -4.6875 7.1875 C-4.3575 8.8375 -4.0275 10.4875 -3.6875 12.1875 C-4.6775 11.8575 -5.6675 11.5275 -6.6875 11.1875 C-8.08685013 8.38879973 -7.94015405 6.28251208 -7.6875 3.1875 C-5.4326487 0.08978096 -3.72862295 -0.16211404 0 0 Z " fill="#43444C" transform="translate(181.6875,90.8125)"/>
<path d="M0 0 C6.93 0 13.86 0 21 0 C21 0.33 21 0.66 21 1 C17.64703509 1.50828443 14.29246657 2.00511457 10.9375 2.5 C9.52307617 2.71462891 9.52307617 2.71462891 8.08007812 2.93359375 C2.99267758 3.67809139 -1.8587994 4.17113566 -7 4 C-4.35261084 2.5393715 -3.10551666 2 0 2 C0 1.34 0 0.68 0 0 Z " fill="#5C5E67" transform="translate(377,429)"/>
<path d="M0 0 C1.32 0 2.64 0 4 0 C4.33 0.66 4.66 1.32 5 2 C6.98 2 8.96 2 11 2 C10.505 2.433125 10.01 2.86625 9.5 3.3125 C7.66781808 4.99740483 7.66781808 4.99740483 8 8 C4.06326356 6.68775452 1.77280706 5.08089673 -1 2 C-0.67 1.34 -0.34 0.68 0 0 Z " fill="#232932" transform="translate(131,250)"/>
<path d="M0 0 C2.64 0 5.28 0 8 0 C8 0.99 8 1.98 8 3 C8.66 3 9.32 3 10 3 C10 7 10 7 9 9 C7.49704815 7.69088122 5.99770689 6.37761608 4.5 5.0625 C3.6646875 4.33160156 2.829375 3.60070312 1.96875 2.84765625 C1.3190625 2.23792969 0.669375 1.62820312 0 1 C0 0.67 0 0.34 0 0 Z " fill="#28323D" transform="translate(85,216)"/>
<path d="M0 0 C1.91697937 0.14166357 3.83357723 0.28849584 5.75 0.4375 C7.35101563 0.55931641 7.35101563 0.55931641 8.984375 0.68359375 C13.96571041 1.20624682 13.96571041 1.20624682 16 2 C16.33 2.99 16.66 3.98 17 5 C13.7 5 10.4 5 7 5 C6.67 4.34 6.34 3.68 6 3 C2.97065509 2.34227572 2.97065509 2.34227572 0 2 C0 1.34 0 0.68 0 0 Z " fill="#0B131E" transform="translate(185,415)"/>
<path d="M0 0 C7.8822202 0.51599184 15.34458305 2.0921453 23 4 C20 6 20 6 18 6 C18 5.34 18 4.68 18 4 C15.03 4 12.06 4 9 4 C9 3.34 9 2.68 9 2 C7.329375 2.061875 7.329375 2.061875 5.625 2.125 C2 2 2 2 0 0 Z " fill="#53545E" transform="translate(187,267)"/>
<path d="M0 0 C-1 2 -1 2 -3.6328125 3.0859375 C-7.1093372 4.02968086 -10.28361449 4.40511925 -13.875 4.625 C-15.02742188 4.69976562 -16.17984375 4.77453125 -17.3671875 4.8515625 C-18.23601562 4.90054687 -19.10484375 4.94953125 -20 5 C-16.9182501 2.94550007 -14.6904243 2.25524191 -11.125 1.375 C-10.09632813 1.11460937 -9.06765625 0.85421875 -8.0078125 0.5859375 C-5.24120939 0.04698884 -2.80715804 -0.11394368 0 0 Z " fill="#61616A" transform="translate(408,269)"/>
<path d="M0 0 C0.66 0.33 1.32 0.66 2 1 C1.505 1.37125 1.01 1.7425 0.5 2.125 C-1.31234752 3.99023914 -1.31234752 3.99023914 -1 7 C-1 10 -1 10 -2.375 11.875 C-4 13 -4 13 -6 13 C-6 12.01 -6 11.02 -6 10 C-5.34 10 -4.68 10 -4 10 C-4.0825 9.0925 -4.165 8.185 -4.25 7.25 C-4 4 -4 4 -2 1.625 C-1.34 1.08875 -0.68 0.5525 0 0 Z " fill="#3B414A" transform="translate(32,87)"/>
<path d="M0 0 C0.33 0 0.66 0 1 0 C1.2137731 7.68395543 1.01670288 14.56340812 -1 22 C-1.33 22 -1.66 22 -2 22 C-2 17.71 -2 13.42 -2 9 C-1.34 9 -0.68 9 0 9 C0 6.03 0 3.06 0 0 Z " fill="#646B71" transform="translate(315,132)"/>
<path d="M0 0 C7.48291572 6.15034169 7.48291572 6.15034169 10 10 C8.35 9.67 6.7 9.34 5 9 C5 8.01 5 7.02 5 6 C3.02 6.33 1.04 6.66 -1 7 C-0.67 4.69 -0.34 2.38 0 0 Z " fill="#4F535B" transform="translate(402,367)"/>
<path d="M0 0 C2.45703125 0.83984375 2.45703125 0.83984375 5 2 C5.6875 4.5625 5.6875 4.5625 6 7 C6.66 7.33 7.32 7.66 8 8 C8.625 11.0625 8.625 11.0625 9 14 C4.4434473 10.28725335 2.42599607 5.20992598 0 0 Z " fill="#434550" transform="translate(72,197)"/>
<path d="M0 0 C4.94151304 2.40016348 7.04331244 5.52273027 10 10 C9.401875 9.814375 8.80375 9.62875 8.1875 9.4375 C5.83591238 8.77906313 5.83591238 8.77906313 3 10 C2.67 9.01 2.34 8.02 2 7 C2.99 7 3.98 7 5 7 C5 6.34 5 5.68 5 5 C4.01 5 3.02 5 2 5 C2 4.01 2 3.02 2 2 C1.34 2 0.68 2 0 2 C0 1.34 0 0.68 0 0 Z " fill="#3D4350" transform="translate(62,86)"/>
<path d="M0 0 C0 0.99 0 1.98 0 3 C-0.721875 2.979375 -1.44375 2.95875 -2.1875 2.9375 C-4.98398199 2.89866591 -4.98398199 2.89866591 -7.5625 3.625 C-10.43723921 4.06726757 -11.58094287 3.52311004 -14 2 C-9.126739 0.4087311 -5.19209404 -0.21192221 0 0 Z " fill="#0F1420" transform="translate(409,271)"/>
<path d="M0 0 C0 0.33 0 0.66 0 1 C-1.98 1 -3.96 1 -6 1 C-6 1.66 -6 2.32 -6 3 C-13.42857143 5.42857143 -13.42857143 5.42857143 -17 4 C-11.00514147 1.39845762 -6.67044212 -0.1258574 0 0 Z " fill="#65656E" transform="translate(53,81)"/>
<path d="M0 0 C2.64 0 5.28 0 8 0 C8 0.66 8 1.32 8 2 C9.98 1.67 11.96 1.34 14 1 C14 1.99 14 2.98 14 4 C12.22773547 3.71715982 10.457212 3.42339502 8.6875 3.125 C7.20830078 2.88136719 7.20830078 2.88136719 5.69921875 2.6328125 C3 2 3 2 0 0 Z " fill="#51565B" transform="translate(225,428)"/>
<path d="M0 0 C-3.50776784 1.60355101 -6.14354879 2.22036864 -10 2 C-10 2.66 -10 3.32 -10 4 C-10.99 4.33 -11.98 4.66 -13 5 C-13.33 4.01 -13.66 3.02 -14 2 C-9.53202599 -0.57767731 -4.97760384 -1.72301671 0 0 Z " fill="#0F111F" transform="translate(51,84)"/>
<path d="M0 0 C0.99 0.33 1.98 0.66 3 1 C3 1.66 3 2.32 3 3 C4.65 3.33 6.3 3.66 8 4 C4.23331402 5.3805087 1.55210827 4.59568159 -2.25 3.5625 C-3.86648437 3.13130859 -3.86648437 3.13130859 -5.515625 2.69140625 C-6.74539062 2.34916016 -6.74539062 2.34916016 -8 2 C-4.90279155 1.12159004 -3.09354597 1.00564594 0 2 C0 1.34 0 0.68 0 0 Z " fill="#33353F" transform="translate(200,246)"/>
<path d="M0 0 C0.99 0.33 1.98 0.66 3 1 C5.05893621 1.22325814 7.12233653 1.40705759 9.1875 1.5625 C10.27417969 1.64628906 11.36085937 1.73007813 12.48046875 1.81640625 C13.72763672 1.90728516 13.72763672 1.90728516 15 2 C15 2.33 15 2.66 15 3 C8.73 3 2.46 3 -4 3 C-2.68 2.01 -1.36 1.02 0 0 Z " fill="#080E19" transform="translate(231,104)"/>
<path d="M0 0 C7.57142857 4.14285714 7.57142857 4.14285714 10 7 C8.02 7 6.04 7 4 7 C3.34 5.35 2.68 3.7 2 2 C1.34 2 0.68 2 0 2 C0 1.34 0 0.68 0 0 Z " fill="#31363D" transform="translate(146,196)"/>
<path d="M0 0 C3.96 0 7.92 0 12 0 C12 1.32 12 2.64 12 4 C6.06 2.515 6.06 2.515 0 1 C0 0.67 0 0.34 0 0 Z " fill="#303248" transform="translate(193,419)"/>
<path d="M0 0 C-0.33 0.66 -0.66 1.32 -1 2 C-3.75078884 2.91692961 -5.35948913 3.10886083 -8.1875 3.0625 C-10.0746875 3.0315625 -10.0746875 3.0315625 -12 3 C-8.48214012 -0.51785988 -4.80656342 -0.10924008 0 0 Z " fill="#54585E" transform="translate(379,276)"/>
<path d="M0 0 C1.32 0.33 2.64 0.66 4 1 C2.02 3.31 0.04 5.62 -2 8 C-2.33 6.68 -2.66 5.36 -3 4 C-2.01 3.67 -1.02 3.34 0 3 C0 2.01 0 1.02 0 0 Z " fill="#5E6169" transform="translate(300,172)"/>
<path d="M0 0 C2.61500768 2.36595933 4.38999603 4.86049226 6 8 C5.67 8.66 5.34 9.32 5 10 C2 9 2 9 0.8125 6.6875 C0 4 0 4 0 0 Z " fill="#5E6066" transform="translate(89,125)"/>
<path d="M0 0 C1.6744239 0.6469365 3.34302621 1.30959426 5 2 C1.92859432 2.91004613 -0.79899154 3.33694826 -4 3 C-4.66 2.01 -5.32 1.02 -6 0 C-3.43417606 -1.28291197 -2.6963913 -0.84743727 0 0 Z " fill="#09111C" transform="translate(213,249)"/>
<path d="M0 0 C2.97 0 5.94 0 9 0 C9 2.97 9 5.94 9 9 C8.67 9 8.34 9 8 9 C7.67 7.02 7.34 5.04 7 3 C4.69 2.34 2.38 1.68 0 1 C0 0.67 0 0.34 0 0 Z " fill="#282E35" transform="translate(306,132)"/>
<path d="M0 0 C1.60495567 0.11442461 3.20898119 0.24194694 4.8125 0.375 C5.70582031 0.44460938 6.59914062 0.51421875 7.51953125 0.5859375 C10 1 10 1 13 3 C7.52667068 4.46845421 4.88077452 3.44038726 0 1 C0 0.67 0 0.34 0 0 Z " fill="#0A121B" transform="translate(247,258)"/>
<path d="M0 0 C0.33 1.32 0.66 2.64 1 4 C-2.75 7 -2.75 7 -5 7 C-4.60196439 4.11424181 -4.20990931 3.17810487 -1.9375 1.25 C-1.298125 0.8375 -0.65875 0.425 0 0 Z " fill="#3A3C47" transform="translate(296,177)"/>
<path d="M0 0 C0.66 0 1.32 0 2 0 C2 1.32 2 2.64 2 4 C0.68 4 -0.64 4 -2 4 C-2 4.99 -2 5.98 -2 7 C-2.99 7.33 -3.98 7.66 -5 8 C-4.1875 5.5625 -4.1875 5.5625 -3 3 C-2.01 2.67 -1.02 2.34 0 2 C0 1.34 0 0.68 0 0 Z " fill="#0D1522" transform="translate(302,168)"/>
<path d="M0 0 C2.58047436 1.29023718 2.67022964 2.27089391 3.625 4.9375 C3.88539063 5.64777344 4.14578125 6.35804687 4.4140625 7.08984375 C5 9 5 9 5 11 C4.34 11 3.68 11 3 11 C3 9.68 3 8.36 3 7 C2.34 7 1.68 7 1 7 C0.67 4.69 0.34 2.38 0 0 Z " fill="#595B62" transform="translate(310,75)"/>
<path d="M0 0 C0.99 0 1.98 0 3 0 C4.26237731 2.52475462 4.09856404 4.31200466 4.0625 7.125 C4.05347656 8.03507812 4.04445313 8.94515625 4.03515625 9.8828125 C4.02355469 10.58148438 4.01195312 11.28015625 4 12 C3.67 12 3.34 12 3 12 C3 9.03 3 6.06 3 3 C1.68 2.67 0.36 2.34 -1 2 C-0.67 1.34 -0.34 0.68 0 0 Z " fill="#2F333A" transform="translate(429,384)"/>
<path d="M0 0 C1.32 0 2.64 0 4 0 C4 0.99 4 1.98 4 3 C3.01 3.33 2.02 3.66 1 4 C1 4.99 1 5.98 1 7 C0.34 7 -0.32 7 -1 7 C-1.04254356 5.00045254 -1.04080783 2.99958364 -1 1 C-0.67 0.67 -0.34 0.34 0 0 Z " fill="#59515E" transform="translate(359,279)"/>
<path d="M0 0 C2.33944736 0.28730055 4.6739143 0.61936779 7 1 C7.33 1.99 7.66 2.98 8 4 C6.3125 4.75 6.3125 4.75 4 5 C1.25 3.0625 1.25 3.0625 -1 1 C-0.67 0.67 -0.34 0.34 0 0 Z " fill="#0B1823" transform="translate(116,179)"/>
<path d="M0 0 C0.66 0 1.32 0 2 0 C3.25664978 2.90600261 4 4.79604584 4 8 C4.66 8.33 5.32 8.66 6 9 C5.34 9.66 4.68 10.32 4 11 C3.32591692 9.73308493 2.66099503 8.46129251 2 7.1875 C1.62875 6.47980469 1.2575 5.77210938 0.875 5.04296875 C0 3 0 3 0 0 Z " fill="#50515D" transform="translate(206,156)"/>
<path d="M0 0 C0.66 0 1.32 0 2 0 C0.25 7.75 0.25 7.75 -2 10 C-2 7.69 -2 5.38 -2 3 C-1.34 3 -0.68 3 0 3 C0 2.01 0 1.02 0 0 Z " fill="#535660" transform="translate(311,154)"/>
<path d="M0 0 C2.74277578 3.19990508 4.6302836 6.00499382 6 10 C4.68 9.67 3.36 9.34 2 9 C2 7.35 2 5.7 2 4 C1.34 4 0.68 4 0 4 C0 2.68 0 1.36 0 0 Z " fill="#3E414F" transform="translate(102,147)"/>
<path d="M0 0 C1.65 0 3.3 0 5 0 C4.01 0.495 4.01 0.495 3 1 C3.66 1.99 4.32 2.98 5 4 C4.67 5.32 4.34 6.64 4 8 C2.68 5.36 1.36 2.72 0 0 Z " fill="#3D4550" transform="translate(44,148)"/>
<path d="M0 0 C0 0.33 0 0.66 0 1 C-3.3 1.66 -6.6 2.32 -10 3 C-10.33 2.34 -10.66 1.68 -11 1 C-6.92630576 -1.03684712 -4.41062136 -1.0257259 0 0 Z " fill="#101521" transform="translate(253,50)"/>
<path d="M0 0 C0.66 0.99 1.32 1.98 2 3 C0.68 5.31 -0.64 7.62 -2 10 C-3.231394 7.53721199 -3.07159196 5.7204945 -3 3 C-2.01 3 -1.02 3 0 3 C0 2.01 0 1.02 0 0 Z " fill="#565863" transform="translate(399,311)"/>
<path d="M0 0 C0.66 0 1.32 0 2 0 C2 0.99 2 1.98 2 3 C2.66 3 3.32 3 4 3 C4.33 4.98 4.66 6.96 5 9 C1.7457985 6.16569547 0.4793247 4.31392226 0 0 Z " fill="#494C59" transform="translate(413,346)"/>
<path d="M0 0 C1.65 0.33 3.3 0.66 5 1 C4.67 1.99 4.34 2.98 4 4 C2.35 3.67 0.7 3.34 -1 3 C-0.67 2.01 -0.34 1.02 0 0 Z " fill="#0F1723" transform="translate(429,315)"/>
<path d="M0 0 C-3.22791555 2.1519437 -4.28400809 2.20086443 -8 2 C-8 1.34 -8 0.68 -8 0 C-4.94736336 -0.98120464 -3.05263664 -0.98120464 0 0 Z " fill="#11131E" transform="translate(368,282)"/>
<path d="M0 0 C3.96 1.98 3.96 1.98 8 4 C7.01 4.66 6.02 5.32 5 6 C4.01 5.34 3.02 4.68 2 4 C2 3.34 2 2.68 2 2 C1.34 2 0.68 2 0 2 C0 1.34 0 0.68 0 0 Z " fill="#4E5F67" transform="translate(165,209)"/>
<path d="M0 0 C0.66 0.33 1.32 0.66 2 1 C1.67 1.99 1.34 2.98 1 4 C0.34 4 -0.32 4 -1 4 C-0.34 5.32 0.32 6.64 1 8 C0.01 8 -0.98 8 -2 8 C-2.20086443 4.28400809 -2.1519437 3.22791555 0 0 Z " fill="#282F3C" transform="translate(35,122)"/>
</svg>
